<svg width="320" height="84" viewBox="0 0 320 84" fill="none" xmlns="http://www.w3.org/2000/svg">
  <defs>
    <linearGradient id="offlineHorizontalBg" x1="8" y1="6" x2="76" y2="78" gradientUnits="userSpaceOnUse">
      <stop stop-color="#E67E22"/>
      <stop offset="1" stop-color="#D96C0F"/>
    </linearGradient>
  </defs>

  <!-- Icon -->
  <rect x="6" y="6" width="72" height="72" rx="18" fill="url(#offlineHorizontalBg)"/>

  <path
    d="M20 56C23 49 30 46 36 46H40C43 46 45 47.5 45 50.5V55H31C27 55 23 55.5 20 56Z"
    fill="#FFF4E8"
  />
  <path
    d="M64 56C61 49 54 46 48 46H44C41 46 39 47.5 39 50.5V55H53C57 55 61 55.5 64 56Z"
    fill="#FFF4E8"
  />

  <circle cx="42" cy="33" r="14" fill="#2C3E50"/>

  <path
    d="M37.4 27.1C37.9 26.6 38.6 26.5 39.3 26.7L41.7 27.7C42.5 28 42.9 29 42.6 29.8L41.9 31.5C43.1 33.7 44.9 35.5 47.1 36.7L48.8 36C49.6 35.7 50.6 36.1 50.9 36.9L51.9 39.3C52.1 40 52 40.7 51.5 41.2L50.2 42.5C49.4 43.3 48.3 43.6 47.2 43.3C43.5 42.1 40.3 39.9 37.7 37.3C35.1 34.7 32.9 31.5 31.7 27.8C31.4 26.7 31.7 25.6 32.5 24.8L33.8 23.5C34.3 23 35 22.9 35.7 23.1L38.1 24.1C38.9 24.4 39.3 25.4 39 26.2L38.3 27.9C38 27.6 37.7 27.4 37.4 27.1Z"
    fill="#FFFFFF"
  />

  <path
    d="M29 60C32.5 57.5 37 56 42 56C47 56 51.5 57.5 55 60"
    stroke="#2C3E50"
    stroke-width="3"
    stroke-linecap="round"
  />

  <!-- Wordmark -->
  <text x="96" y="38" fill="#2C3E50" font-family="Inter, Arial, sans-serif" font-size="28" font-weight="700" letter-spacing="0.5">
    OFFLINE
  </text>

  <!-- Tagline -->
  <text x="96" y="60" fill="#E67E22" font-family="Inter, Arial, sans-serif" font-size="14" font-weight="600">
    One Call. Done.
  </text>
</svg>
