<svg xmlns="http://www.w3.org/2000/svg" viewBox="0 0 512 512" width="512" height="512" role="img" aria-label="Offline"><defs><linearGradient id="og" x1="0" y1="0" x2="1" y2="1"><stop offset="0%" stop-color="#34495E"/><stop offset="100%" stop-color="#2C3E50"/></linearGradient></defs><rect width="512" height="512" rx="112" fill="url(#og)"/><g fill="none" stroke="#FFFFFF" stroke-width="26" stroke-linecap="round" stroke-linejoin="round" opacity="0.95"><path d="M128 288c0-77 43-120 104-120 29 0 43 14 43 35v68"/><path d="M128 288c0 60 43 92 90 92h40"/><path d="M384 288c0-77-43-120-104-120-29 0-43 14-43 35v68"/><path d="M384 288c0 60-43 92-90 92h-40"/></g><circle cx="256" cy="240" r="27" fill="#E67E22"/><circle cx="256" cy="240" r="51" fill="none" stroke="#E67E22" stroke-width="11" opacity="0.6"/></svg>