<svg xmlns="http://www.w3.org/2000/svg" viewBox="0 0 192 192" width="192" height="192" role="img" aria-label="Offline"><defs><linearGradient id="og" x1="0" y1="0" x2="1" y2="1"><stop offset="0%" stop-color="#34495E"/><stop offset="100%" stop-color="#2C3E50"/></linearGradient></defs><rect width="192" height="192" rx="42" fill="url(#og)"/><g fill="none" stroke="#FFFFFF" stroke-width="10" stroke-linecap="round" stroke-linejoin="round" opacity="0.95"><path d="M48 108c0-29 16-45 39-45 11 0 16 5 16 13v26"/><path d="M48 108c0 23 16 35 34 35h15"/><path d="M144 108c0-29-16-45-39-45-11 0-16 5-16 13v26"/><path d="M144 108c0 23-16 35-34 35H95"/></g><circle cx="96" cy="90" r="10" fill="#E67E22"/><circle cx="96" cy="90" r="19" fill="none" stroke="#E67E22" stroke-width="4" opacity="0.6"/></svg>